<?xml version="1.0" encoding="utf-8"?>
<!-- Generator: Adobe Illustrator 15.0.2, SVG Export Plug-In . SVG Version: 6.00 Build 0)  -->
<!DOCTYPE svg PUBLIC "-//W3C//DTD SVG 1.1//EN" "http://www.w3.org/Graphics/SVG/1.1/DTD/svg11.dtd">
<svg version="1.1" id="Layer_1" xmlns="http://www.w3.org/2000/svg" xmlns:xlink="http://www.w3.org/1999/xlink" x="0px" y="0px"
	 width="83px" height="80px" viewBox="0 0 83 80" enable-background="new 0 0 83 80" xml:space="preserve">
<g>
	<path fill="#E7E6E6" d="M53.314,0h-23.05L0.36,70.524V80h82.281v-9.476L53.314,0z M40.417,15.292h0.573
		c1.483,4.794,4.567,12.666,6.389,17.803l1.918,4.627H32.173l2.427-5.996C36.422,26.363,39.39,18.833,40.417,15.292z M20.788,65.847
		l4.789-11.831h30.476l4.906,11.831H20.788z"/>
	<path fill="#FFFFFF" d="M2,78v-7.069L31.588,2H51.98L81,70.924V78H2z M17.821,68h46.132l-6.564-16h-33.16L17.821,68z M29.206,40
		h23.085l-3.045-7.484c-0.636-1.792-1.423-3.979-2.241-6.183c-1.552-4.177-3.156-8.677-4.104-11.743L42.465,13h-3.551l-0.418,1.589
		c-0.572,1.973-1.788,5.355-3.075,8.858c-0.943,2.569-1.919,5.4-2.696,7.683L29.206,40z"/>
</g>
</svg>
