<?xml version="1.0" encoding="utf-8"?>
<!-- Generator: Adobe Illustrator 15.0.2, SVG Export Plug-In . SVG Version: 6.00 Build 0)  -->
<!DOCTYPE svg PUBLIC "-//W3C//DTD SVG 1.1//EN" "http://www.w3.org/Graphics/SVG/1.1/DTD/svg11.dtd">
<svg version="1.1" id="Layer_1" xmlns="http://www.w3.org/2000/svg" xmlns:xlink="http://www.w3.org/1999/xlink" x="0px" y="0px"
	 width="866px" height="480px" viewBox="0 0 866 480" enable-background="new 0 0 866 480" xml:space="preserve">
<g>
	<polygon fill="#F7F7F7" points="448,246 438,286 415,251 	"/>
	<polygon fill="#F7F7F7" points="688,197 705,236 675,295 	"/>
	<polygon fill="#E7E6E6" points="578,43 553,26 562,70 	"/>
	<polygon fill="#724ACE" points="235,14 319,2 263,29 	"/>
	<polygon fill="#4ACACE" points="515,351 598,363 551,378 	"/>
	<polygon fill="#E7E6E6" points="300.942,330.96 295,365 273.197,346.427 	"/>
	<polygon fill="#F7F7F7" points="359,116 345,91 377,86 	"/>
	<polygon fill="#724ACE" points="145,442 127,418 158,391 	"/>
	<polygon fill="#4ACACE" points="57,65 114,111 0,68 	"/>
	<polygon fill="#4ACACE" points="856.034,70.176 815.188,130.976 866,88 	"/>
	<polygon fill="#F7F7F7" points="47,243 71,278 15,305 	"/>
	<polygon fill="#724ACE" points="812.148,446.402 782.969,477.216 744.812,428.133 	"/>
</g>
</svg>
